# xmcd
#
# Track frame offsets: 
#        150
#        14922
#        30317
#        46017
#        61247
#        76548
#        90158
#        106188
#        121571
#        136613
#
# Disc length: 1959 seconds
#
# Revision: 0
# Processed by: cddbd v1.5.2PL0 Copyright (c) Steve Scherf et al.
# Submitted via: ExactAudioCopy v1.3
#
DISCID=5d07a50a
DTITLE=Mickey Gilley - Put Your Dreams Away
DYEAR=1982
DGENRE=Country
TTITLE0=Talk To Me
TTITLE1=Don't You Be Foolin' With A Fool
TTITLE2=I Really Don't Want To Know
TTITLE3=If I Can't Hold Her On The Outside
TTITLE4=Put Your Dreams Away
TTITLE5=Texas Heartache Number One
TTITLE6=She Beats All I Ever Seen
TTITLE7=The Beginning Of The End
TTITLE8=Honky Tonkin' (Guess I Done Me Some)
TTITLE9=Rocky Road To Romance
EXTD=
EXTT0=
EXTT1=
EXTT2=
EXTT3=
EXTT4=
EXTT5=
EXTT6=
EXTT7=
EXTT8=
EXTT9=
PLAYORDER=
